<?xml version="1.0" standalone="no"?>
<!DOCTYPE svg PUBLIC "-//W3C//DTD SVG 1.1//EN" "http://www.w3.org/Graphics/SVG/1.1/DTD/svg11.dtd" >
<svg xmlns="http://www.w3.org/2000/svg">
<metadata></metadata>
<defs>
<font id="helveticaneuecyrroman" horiz-adv-x="1138" >
<font-face units-per-em="2048" ascent="1638" descent="-410" />
<missing-glyph horiz-adv-x="569" />
<glyph horiz-adv-x="2048" />
<glyph horiz-adv-x="2048" />
<glyph unicode="&#xd;" horiz-adv-x="2048" />
<glyph unicode=" "  horiz-adv-x="569" />
<glyph unicode="&#x09;" horiz-adv-x="569" />
<glyph unicode="&#xa0;" horiz-adv-x="569" />
<glyph unicode="!" horiz-adv-x="530" d="M158 0v207h215v-207h-215zM170 1012v446h192v-446l-51 -650h-94z" />
<glyph unicode="&#x22;" horiz-adv-x="872" d="M211 1425h133l-18 -569h-95zM528 1425h134l-19 -569h-96z" />
<glyph unicode="#" d="M29 432v115h241l66 336h-221l-2 112h243l82 430h133l-82 -430h267l84 430h131l-82 -430h221v-112h-242l-65 -336h221l2 -115h-244l-82 -432h-131l80 432h-266l-82 -432h-133l82 432h-221zM403 547h269l63 336h-268z" />
<glyph unicode="$" d="M63 416v20h175q-2 -12 -2 -26q0 -272 278 -297v563q-97 19 -170.5 47.5t-132 74.5t-89 114t-30.5 157q0 182 117.5 284t304.5 120v141h96v-141q199 -3 307 -101.5t111 -292.5h-172v13q0 219 -246 237v-508q51 -15 78.5 -23t73.5 -24t71.5 -28.5t62.5 -33t57.5 -41 t44.5 -50t36 -62t20.5 -74.5t8.5 -90q0 -188 -119 -301.5t-334 -126.5v-170h-96v170q-207 9 -329 123.5t-122 325.5zM262 1083q0 -56 20 -98.5t57 -70t78.5 -44.5t96.5 -30v485q-117 -11 -184.5 -75t-67.5 -167zM610 111q123 3 201 81t78 199q0 60 -22.5 106.5t-64 76.5 t-87.5 48t-105 31v-542z" />
<glyph unicode="%" horiz-adv-x="2048" d="M190 1049q0 195 87.5 301t250.5 106q157 0 239.5 -100.5t82.5 -290.5q0 -209 -84.5 -319.5t-245.5 -110.5q-163 0 -246.5 105t-83.5 309zM344 1038q0 -286 176 -286t176 305q0 280 -176 280t-176 -299zM532 -70l822 1567h135l-817 -1567h-140zM1210 383q0 195 88 301.5 t250 106.5q157 0 239.5 -100.5t82.5 -291.5q0 -209 -84.5 -319.5t-245.5 -110.5q-163 0 -246.5 105t-83.5 309zM1364 373q0 -287 176 -287t176 305q0 281 -176 281t-176 -299z" />
<glyph unicode="&#x26;" horiz-adv-x="1290" d="M68 381q0 144 98.5 259t243.5 179q-85 103 -121.5 181.5t-36.5 156.5q0 137 94.5 223t245.5 86q148 0 241 -84.5t93 -218.5q0 -124 -74 -219.5t-195 -159.5l267 -325q41 99 47 231h166q-9 -205 -101 -360l283 -330h-225l-156 184q-151 -215 -426 -215q-189 0 -316.5 112 t-127.5 300zM250 389q0 -113 81.5 -191.5t198.5 -78.5q193 0 310 182l-336 406q-67 -34 -120.5 -76t-93.5 -106.5t-40 -135.5zM420 1163q0 -17 4.5 -36t10 -34t17.5 -36.5t19 -34t24.5 -35.5t23.5 -31t24.5 -32t21.5 -27q193 115 193 252q0 75 -48 124.5t-120 49.5t-121 -46 t-49 -114z" />
<glyph unicode="'" horiz-adv-x="569" d="M217 1425h133l-18 -569h-94z" />
<glyph unicode="(" horiz-adv-x="530" d="M98 539q0 251 81 492.5t239 453.5h133q-133 -205 -202.5 -446.5t-69.5 -497.5q0 -499 272 -930h-133q-166 257 -243 466t-77 462z" />
<glyph unicode=")" horiz-adv-x="530" d="M-25 -389q273 433 273 930q0 255 -70 497t-203 447h134q158 -212 238.5 -453t80.5 -493q0 -253 -77 -462.5t-242 -465.5h-134z" />
<glyph unicode="*" horiz-adv-x="720" d="M49 1231l35 100l219 -82v232h111v-232l217 82l41 -100l-223 -78l135 -184l-84 -62l-142 193l-135 -193l-90 62l133 184z" />
<glyph unicode="+" horiz-adv-x="1228" d="M100 453v120h447v453h135v-453h446v-120h-446v-453h-135v453h-447z" />
<glyph unicode="," horiz-adv-x="569" d="M170 0v227h227v-139q0 -51 -3 -89t-11 -80.5t-23.5 -74.5t-40 -62t-62 -51t-87.5 -34v102q58 20 84.5 68t28.5 133h-113z" />
<glyph unicode="-" horiz-adv-x="796" d="M100 483v172h596v-172h-596z" />
<glyph unicode="." horiz-adv-x="569" d="M170 0v227h227v-227h-227z" />
<glyph unicode="/" horiz-adv-x="681" d="M-37 -35l612 1528h144l-608 -1528h-148z" />
<glyph unicode="0" d="M84 694q0 66 1.5 118t7.5 117t16 116t28.5 107t43.5 98t61.5 82t82.5 65t107.5 40t134.5 15q74 0 136 -15t108 -40.5t83 -65.5t62 -82.5t43.5 -99t28.5 -107.5t16 -116.5t7.5 -117.5t1.5 -118q0 -80 -4.5 -148t-17.5 -143.5t-35 -135.5t-58.5 -116t-85.5 -93.5 t-119.5 -60t-157.5 -22.5q-92 0 -165.5 22.5t-124 59.5t-88 94t-59 116.5t-34 136.5t-16.5 144t-4 150zM268 694q0 -46 0.5 -77t3.5 -81t8.5 -85.5t16 -81.5t25.5 -78t38.5 -65.5t52.5 -54t69.5 -33.5t88.5 -13q61 0 109 22t78.5 53.5t52 85.5t32 97t16.5 111t6.5 104.5 t0.5 99.5v4v12q0 77 -1.5 121t-9 124t-27 129.5t-50.5 102.5t-85 79t-126 26q-62 0 -110.5 -22.5t-79.5 -54t-53 -87t-32.5 -99t-16.5 -114.5t-6.5 -108.5t-0.5 -103.5v-13z" />
<glyph unicode="1" d="M178 1051v131q86 0 150 11.5t120 40.5t93 83t55 133h137v-1450h-190v1051h-365z" />
<glyph unicode="2" d="M51 0q5 98 29 177.5t56.5 135t92.5 111.5t112.5 93t141.5 93q138 87 186 125q153 124 160 277v14q0 122 -78 198t-202 76q-63 0 -112 -21t-80 -55t-51.5 -82.5t-29.5 -98.5t-10 -107h-176v39q0 215 128 346t339 131q206 0 329.5 -115t123.5 -307q0 -46 -8.5 -89.5 t-21 -78.5t-36.5 -71t-44.5 -62.5t-56 -58t-60 -51t-68.5 -48.5t-68.5 -44.5t-71.5 -43.5q-8 -5 -25 -15q-50 -30 -77 -47t-70.5 -49.5t-68 -60.5t-48 -68.5t-34.5 -84.5h745v-158h-946z" />
<glyph unicode="3" d="M61 422v27h172q6 -155 88.5 -239.5t227.5 -84.5q138 0 225.5 78.5t87.5 204.5q0 128 -86.5 203t-234.5 75q-38 0 -95 -8v147q29 -2 60 -2q135 0 214 65t79 175q0 107 -69 172t-183 65q-131 0 -205 -83t-78 -236h-170q6 226 126 348.5t335 122.5q192 0 309 -104.5 t117 -274.5q0 -103 -52.5 -183t-146.5 -120q123 -29 195 -123.5t72 -226.5q1 -201 -138.5 -325t-363.5 -124q-221 0 -353.5 122.5t-132.5 328.5z" />
<glyph unicode="4" d="M57 350v164l660 938h141v-954h197v-148h-197v-350h-164v350h-637zM211 498h483v698z" />
<glyph unicode="5" d="M72 391h176q11 -122 92.5 -197t202.5 -75q135 0 225 98t90 244q0 151 -88 246.5t-229 95.5q-180 0 -279 -141l-149 10l135 753h717v-153h-588l-86 -432q58 62 128.5 88t164.5 26q204 0 331 -131.5t127 -343.5q0 -222 -138.5 -365t-362.5 -143q-207 0 -335 114.5 t-134 305.5z" />
<glyph unicode="6" d="M80 692q0 79 6.5 152t23 150.5t42.5 143t67.5 124.5t95 100.5t128 65.5t163.5 24q183 0 294 -99.5t124 -277.5h-178q-14 105 -76.5 165t-169.5 60q-50 0 -93.5 -13.5t-75 -34.5t-57.5 -54.5t-43.5 -66t-31.5 -78t-21.5 -81t-13.5 -83.5t-8 -78t-4 -72q59 95 151.5 143 t208.5 48q203 0 327 -128t124 -337q0 -215 -130 -354.5t-347 -139.5q-88 0 -160.5 22.5t-124 61t-91 94.5t-64 117t-39.5 135.5t-21 144t-6 146.5zM285 457q0 -150 83.5 -240t217.5 -90q131 0 212 87.5t81 234.5q0 152 -80 240.5t-217 88.5q-132 0 -214.5 -88.5 t-82.5 -232.5z" />
<glyph unicode="7" d="M94 1260v165h938v-149q-476 -541 -555 -1276h-192q24 337 177 666.5t392 593.5h-760z" />
<glyph unicode="8" d="M82 410q0 132 66.5 227t189.5 139q-95 40 -148 119.5t-53 185.5q0 164 120.5 267.5t311.5 103.5q188 0 308 -101.5t120 -260.5q0 -108 -50 -188.5t-148 -125.5q256 -89 256 -354q0 -207 -133 -329t-359 -122q-217 0 -349 120.5t-132 318.5zM264 414q0 -129 85.5 -212 t217.5 -83q135 0 220 82t85 211t-85.5 208.5t-223.5 79.5q-130 0 -214.5 -80.5t-84.5 -205.5zM315 1069q0 -103 70 -165t184 -62t182 62t68 165q0 104 -68 165.5t-182 61.5t-184 -62t-70 -165z" />
<glyph unicode="9" d="M70 965q0 218 132.5 352.5t346.5 134.5q500 0 500 -709q0 -75 -6.5 -147t-22.5 -150t-41.5 -145.5t-66 -129t-92.5 -105.5t-125 -69.5t-160 -25.5q-184 0 -302.5 101t-130.5 278h172q13 -106 85 -166.5t182 -60.5q285 0 323 473q4 43 4 96q-62 -101 -148 -149.5 t-206 -48.5q-198 0 -321 130t-123 341zM254 971q0 -139 75 -230.5t212 -91.5q133 0 215 87.5t82 230.5q0 150 -81.5 239.5t-215.5 89.5q-128 0 -207.5 -89t-79.5 -236z" />
<glyph unicode=":" horiz-adv-x="569" d="M170 0v227h227v-227h-227zM170 829v228h227v-228h-227z" />
<glyph unicode=";" horiz-adv-x="569" d="M170 0v227h227v-139q0 -51 -3 -89t-11 -80.5t-23.5 -74.5t-40 -62t-62 -51t-87.5 -34v102q58 20 84.5 68t28.5 133h-113zM170 829v228h227v-228h-227z" />
<glyph unicode="&#x3c;" horiz-adv-x="1228" d="M100 457v133l1028 409v-137l-866 -340l866 -336v-137z" />
<glyph unicode="=" horiz-adv-x="1228" d="M100 274v121h1028v-121h-1028zM100 664v122h1028v-122h-1028z" />
<glyph unicode="&#x3e;" horiz-adv-x="1228" d="M100 49v137l867 336l-867 340v137l1028 -409v-133z" />
<glyph unicode="?" d="M113 1001q0 102 28.5 189t83.5 153.5t144.5 104t203.5 37.5q197 0 315 -106.5t118 -286.5q0 -109 -39.5 -187.5t-120.5 -154.5q-15 -14 -42.5 -39t-38.5 -35.5t-31 -31.5t-28 -33.5t-21 -34.5t-17.5 -42t-10.5 -48t-8 -60t-2 -72h-168v13q0 73 8.5 127.5t20 91.5t44 81 t58 71.5t85.5 87.5l10 10q65 65 90.5 117.5t25.5 117.5q0 120 -67 189t-183 69q-268 0 -286 -328h-172zM453 0v207h215v-207h-215z" />
<glyph unicode="@" horiz-adv-x="1638" d="M63 707q0 220 108.5 400t298.5 283t421 103q198 0 354 -77t243 -216t87 -317q0 -142 -57.5 -266.5t-153.5 -198.5t-205 -74q-71 0 -115.5 40.5t-44.5 104.5q0 23 11 68q-104 -213 -293 -213q-123 0 -199 85t-76 222q0 131 56 246t150 183.5t200 68.5q98 0 162 -48 t84 -136l43 153h118l-120 -407q-41 -139 -41 -193q0 -41 26 -64.5t70 -23.5q76 0 146.5 65t113.5 171.5t43 220.5q0 235 -167.5 380.5t-436.5 145.5q-208 0 -378.5 -92.5t-268 -254.5t-97.5 -361q0 -149 57 -274.5t154.5 -209t227.5 -130t276 -46.5q162 0 297 49.5 t279 149.5l43 -60q-158 -117 -303.5 -168t-319.5 -51q-162 0 -307 53t-252.5 147.5t-170.5 235t-63 306.5zM582 649q0 -101 45.5 -160t122.5 -59q54 0 102 32.5t81 82.5t57.5 111.5t36 119.5t11.5 105q0 82 -45.5 133t-120.5 51q-65 0 -121.5 -43t-92 -107.5t-56 -135 t-20.5 -130.5z" />
<glyph unicode="A" horiz-adv-x="1327" d="M-16 0l573 1458h217l569 -1458h-215l-161 446h-613l-166 -446h-204zM410 600h499l-247 674z" />
<glyph unicode="B" horiz-adv-x="1402" d="M162 0v1458h622q95 0 175.5 -20t147 -61t104.5 -113.5t38 -169.5q0 -107 -58.5 -193t-156.5 -121q135 -31 208 -127t73 -241q0 -412 -553 -412h-600zM350 162h385q50 0 83.5 1.5t77.5 7t73 16t60 30.5t49.5 48t30 70t11.5 95q0 52 -14 93t-33 67.5t-56 44.5t-65.5 27 t-79.5 14t-80.5 5.5t-84.5 0.5h-5h-352v-520zM350 834h346q50 0 84.5 2t81 9t77.5 22.5t60 40t43.5 64.5t14.5 93q0 46 -10.5 81.5t-26.5 59.5t-44 41t-53.5 26t-65 14t-69 6t-73.5 1h-365v-460z" />
<glyph unicode="C" horiz-adv-x="1478" d="M90 727q0 158 45.5 296t130.5 242.5t217.5 165t296.5 60.5q87 0 170 -19t158 -58t133.5 -94t96.5 -132t46 -168h-192q-32 143 -142.5 224t-273.5 81q-101 0 -183.5 -32.5t-139 -88.5t-95 -132.5t-56 -162.5t-17.5 -180q0 -278 131 -438t358 -160q186 0 296.5 108 t133.5 312h193q-25 -277 -192.5 -431.5t-438.5 -154.5q-312 0 -494 205.5t-182 556.5z" />
<glyph unicode="D" horiz-adv-x="1441" d="M162 0v1458h475q371 0 547 -172t176 -545q0 -367 -163.5 -554t-524.5 -187h-510zM354 166h293q274 0 398 134.5t124 418.5q0 149 -27.5 254t-89.5 178t-163.5 107t-249.5 34h-285v-1126z" />
<glyph unicode="E" horiz-adv-x="1251" d="M162 0v1458h1009v-168h-817v-456h764v-162h-764v-504h828v-168h-1020z" />
<glyph unicode="F" horiz-adv-x="1175" d="M164 0v1458h958v-168h-766v-454h676v-162h-676v-674h-192z" />
<glyph unicode="G" horiz-adv-x="1554" d="M90 717q0 161 47.5 301t135.5 245t224 165.5t302 60.5q112 0 215.5 -31t188.5 -89.5t140.5 -151.5t65.5 -207h-188q-22 143 -137.5 230t-284.5 87q-238 0 -377 -163t-139 -441q0 -274 139 -436t375 -162q149 0 252.5 64.5t152.5 172.5t53 252h-467v158h639v-772h-122 l-50 182q-92 -113 -205 -165t-266 -52q-205 0 -363 94t-244.5 265t-86.5 393z" />
<glyph unicode="H" horiz-adv-x="1478" d="M162 0v1458h192v-608h770v608h193v-1458h-193v682h-770v-682h-192z" />
<glyph unicode="I" horiz-adv-x="530" d="M170 0v1458h192v-1458h-192z" />
<glyph unicode="J" horiz-adv-x="1062" d="M51 424q0 28 2 55h187v-51q0 -71 9 -121t34 -94t75.5 -66t126.5 -22q47 0 83 10.5t60 26t41 43.5t26 53t13.5 65t5.5 69t1 75v991h192v-1009q0 -110 -19 -192.5t-64.5 -151t-130 -104.5t-206.5 -36q-230 0 -333 114.5t-103 344.5z" />
<glyph unicode="K" horiz-adv-x="1366" d="M162 0v1458h192v-723l740 723h252l-615 -586l639 -872h-246l-528 741l-242 -229v-512h-192z" />
<glyph unicode="L" d="M164 0v1458h192v-1290h774v-168h-966z" />
<glyph unicode="M" horiz-adv-x="1783" d="M164 0v1458h266l469 -1235l453 1235h268v-1458h-182v1217l-457 -1217h-168l-465 1217v-1217h-184z" />
<glyph unicode="N" horiz-adv-x="1478" d="M154 0v1458h211l770 -1184v1184h186v-1458h-217l-766 1169v-1169h-184z" />
<glyph unicode="O" horiz-adv-x="1556" d="M80 745q0 341 189 544.5t507 203.5q166 0 300 -56.5t221 -157t133.5 -238t46.5 -300.5q0 -162 -45 -302t-130 -246t-220 -167t-304 -61q-170 0 -305 62t-220 169.5t-129 247.5t-44 301zM272 731q0 -274 138 -437t370 -163q229 0 366.5 164t137.5 436q0 270 -138 432 t-370 162q-100 0 -184 -32t-142.5 -87.5t-99 -131t-59.5 -162t-19 -181.5z" />
<glyph unicode="P" horiz-adv-x="1327" d="M170 0v1458h600q108 0 194 -23.5t152.5 -72.5t102.5 -131t36 -193q0 -440 -497 -440h-396v-598h-192zM362 760h371q59 0 106 7t90 25t71.5 47.5t45.5 76.5t17 110q0 68 -19.5 117t-50.5 77.5t-79.5 45t-96 21.5t-110.5 5h-345v-532z" />
<glyph unicode="Q" horiz-adv-x="1556" d="M80 745q0 338 191 542t507 204q324 0 511.5 -202.5t187.5 -553.5q0 -184 -56 -334.5t-161 -250.5l192 -154l-100 -121l-222 178q-151 -88 -356 -88q-166 0 -299.5 61t-219 168t-130.5 247.5t-45 303.5zM272 737q0 -98 19 -187t59.5 -166.5t99.5 -133.5t145 -88.5 t191 -32.5q118 0 199 41l-164 129l103 119l192 -158q168 168 168 471q0 269 -137.5 431.5t-364.5 162.5q-124 0 -223 -47.5t-161 -129.5t-94 -187t-32 -224z" />
<glyph unicode="R" horiz-adv-x="1402" d="M162 0v1458h641q109 0 193 -19.5t153 -64t106 -125t37 -194.5q0 -127 -69 -225t-181 -130q43 -9 76.5 -25t56 -33.5t38.5 -46t25 -51.5t14.5 -62.5t7.5 -65.5t4 -74q0 -7 1.5 -39.5t2.5 -43t3 -40t4.5 -43t7 -39t10.5 -41t13.5 -35t18 -34t23.5 -27.5h-222 q-13 21 -22.5 51t-14 72.5t-6.5 67.5t-4 75t-2 56q-6 127 -36 191t-99.5 91t-204.5 27h-383v-631h-192zM354 784h363q47 0 81 1.5t76.5 7.5t72.5 16.5t61 30t49.5 46.5t30.5 66.5t12 89.5q0 63 -18.5 109.5t-48 73.5t-75 43t-89.5 21t-101 5h-414v-510z" />
<glyph unicode="S" horiz-adv-x="1327" d="M80 481h186q3 -96 38 -166.5t95.5 -111t135 -59.5t165.5 -19q69 0 129.5 13t115 42t86.5 83t32 128q0 54 -21 94.5t-54.5 67t-90 48.5t-110.5 36t-133 32l-15 3q-15 3 -45 10q-50 11 -75.5 17t-72.5 18.5t-72.5 23t-64 29t-60 37t-47.5 46.5t-39 59t-22.5 71.5t-9.5 87.5 q0 87 30 158t80.5 118t119 79.5t143 46.5t155.5 14q240 0 383 -114.5t152 -342.5h-186q-17 155 -107.5 226t-255.5 71q-157 0 -243.5 -63.5t-86.5 -178.5q0 -47 20 -83t52.5 -59.5t84.5 -42t106 -31.5t126 -28q5 -1 7 -1q48 -10 82 -17.5t82 -21t82.5 -26.5t76 -33t71 -42.5 t59 -52.5t47.5 -64.5t29 -78.5t11 -94q0 -94 -32.5 -170t-86.5 -126t-128 -84t-153.5 -48.5t-166.5 -14.5q-133 0 -242 31.5t-190.5 93t-126.5 161t-45 228.5z" />
<glyph unicode="T" horiz-adv-x="1175" d="M2 1290v168h1172v-168h-490v-1290h-192v1290h-490z" />
<glyph unicode="U" horiz-adv-x="1478" d="M152 569v889h194v-919q0 -213 92 -311.5t301 -98.5q214 0 304 100.5t90 309.5v919h194v-868q0 -158 -30 -270.5t-98 -193t-182 -119t-278 -38.5q-311 0 -449 146t-138 454z" />
<glyph unicode="V" horiz-adv-x="1251" d="M-4 1458h213l420 -1270l424 1270h202l-520 -1458h-221z" />
<glyph unicode="W" horiz-adv-x="1896" d="M29 1458h198l289 -1218l330 1218h211l325 -1218l299 1218h193l-389 -1458h-203l-336 1221l-340 -1221h-203z" />
<glyph unicode="X" horiz-adv-x="1251" d="M-10 0l514 752l-481 706h231l367 -561l378 561h220l-486 -706l512 -752h-233l-394 600l-407 -600h-221z" />
<glyph unicode="Y" horiz-adv-x="1327" d="M6 1458h232l436 -694l432 694h221l-563 -862v-596h-191v596z" />
<glyph unicode="Z" horiz-adv-x="1251" d="M35 0v164l907 1126h-836v168h1070v-160l-910 -1130h932v-168h-1163z" />
<glyph unicode="[" horiz-adv-x="530" d="M147 -385v1866h388v-140h-222v-1587h222v-139h-388z" />
<glyph unicode="\" horiz-adv-x="681" d="M-37 1493h143l613 -1528h-148z" />
<glyph unicode="]" horiz-adv-x="530" d="M-4 -246h221v1587h-221v140h387v-1866h-387v139z" />
<glyph unicode="^" horiz-adv-x="1228" d="M203 575l348 850h127l348 -850h-141l-273 689l-268 -689h-141z" />
<glyph unicode="_" horiz-adv-x="1024" d="M0 -154h1024v-102h-1024v102z" />
<glyph unicode="`" horiz-adv-x="454" d="M-49 1499h225l176 -291h-131z" />
<glyph unicode="a" horiz-adv-x="1099" d="M74 270q0 284 375 330q190 23 214 28q84 18 107 60q16 29 16 80q0 85 -61 129.5t-178 44.5q-124 0 -187 -50t-75 -165h-170q5 169 121.5 263.5t320.5 94.5q106 0 193 -26.5t139 -75.5q26 -26 42 -57.5t22 -74.5t7 -67t1 -75q0 -79 -4.5 -235.5t-4.5 -235.5 q0 -58 16 -81.5t56 -23.5q16 0 43 6v-135q-53 -20 -119 -20q-73 0 -112 40t-41 115q-78 -88 -169 -128t-214 -40q-157 0 -247.5 80.5t-90.5 218.5zM254 285q0 -82 56.5 -129t154.5 -47q125 0 223 73.5t98 173.5v193q-16 -12 -36.5 -21.5t-34.5 -14.5t-42.5 -10.5t-38 -7 t-43.5 -5.5t-38 -5q-5 -1 -16 -2q-28 -3 -43 -5.5t-42.5 -7t-43.5 -9.5t-40 -13.5t-37.5 -18t-30 -24t-25.5 -31.5t-15 -39.5t-6 -49.5z" />
<glyph unicode="b" horiz-adv-x="1214" d="M129 0v1458h174v-547q115 174 350 174q217 0 347 -150.5t130 -402.5q0 -256 -133 -409.5t-354 -153.5q-115 0 -207.5 45.5t-142.5 139.5v-154h-164zM297 520q0 -187 89 -296t241 -109q146 0 234.5 113t88.5 302q0 187 -87.5 297.5t-235.5 110.5q-70 0 -127 -23.5t-94 -63 t-62 -93.5t-36 -113t-11 -125z" />
<glyph unicode="c" horiz-adv-x="1099" d="M78 514q0 264 137.5 418.5t370.5 154.5q194 0 310 -97t138 -277h-180q-23 112 -91 170.5t-175 58.5q-151 0 -239.5 -112t-88.5 -302q0 -194 83.5 -303.5t231.5 -109.5q119 0 194 70t95 200h176q-24 -192 -145 -304t-315 -112q-240 0 -371 148.5t-131 396.5z" />
<glyph unicode="d" horiz-adv-x="1214" d="M82 530q0 91 18.5 173t57.5 152.5t95 121.5t135.5 80.5t174.5 29.5q227 0 346 -172v543h174v-1458h-163v156q-101 -185 -349 -185q-225 0 -357 150.5t-132 408.5zM262 535q0 -192 88.5 -306t239.5 -114q152 0 237.5 109.5t85.5 303.5q0 82 -18 153.5t-55.5 130 t-102.5 92.5t-151 34q-149 0 -236.5 -108.5t-87.5 -294.5z" />
<glyph unicode="e" horiz-adv-x="1099" d="M76 514q0 256 135.5 414.5t355.5 158.5q101 0 183 -31.5t136.5 -85t91.5 -128.5t53 -158.5t16 -177.5v-25h-795l-2 -12q0 -169 88 -264.5t242 -95.5q114 0 180.5 52.5t103.5 172.5h170q-40 -183 -156.5 -276t-304.5 -93q-233 0 -365 145.5t-132 403.5zM252 623h614 q-12 151 -92.5 236t-210.5 85q-127 0 -210.5 -86t-100.5 -235z" />
<glyph unicode="f" horiz-adv-x="606" d="M25 913v144h178v141q0 143 74 207.5t219 64.5q44 0 112 -8v-151q-46 8 -96 8q-83 0 -108 -26.5t-25 -114.5v-121h203v-144h-203v-913h-176v913h-178z" />
<glyph unicode="g" horiz-adv-x="1175" d="M80 524q0 110 30.5 209.5t87.5 178.5t149 126t206 47q109 0 197 -47.5t137 -134.5v154h160v-942q0 -136 -15 -212t-53 -141q-57 -94 -164.5 -143t-253.5 -49q-84 0 -155.5 15.5t-134 50t-103 97t-51.5 148.5h178q15 -90 81.5 -133t190.5 -43q163 0 236 81.5t76 264.5 l2 129q-52 -99 -133.5 -145.5t-202.5 -46.5q-213 0 -339 145t-126 391zM258 522q0 -174 84.5 -279.5t222.5 -105.5q145 0 228.5 111t83.5 303q0 180 -83.5 281.5t-232.5 101.5q-141 0 -222 -110t-81 -302z" />
<glyph unicode="h" d="M131 0v1458h174v-551q117 176 346 176q183 0 270 -94t87 -266v-723h-174v682q0 58 -10 101t-35 78t-72 53t-115 18q-160 0 -228.5 -102t-68.5 -293v-537h-174z" />
<glyph unicode="i" horiz-adv-x="454" d="M139 0v1057h176v-1057h-176zM139 1245v213h176v-213h-176z" />
<glyph unicode="j" horiz-adv-x="454" d="M-31 -272q54 -4 60 -4q34 0 56 7t33.5 15.5t17 31.5t6.5 40t1 56v13v1170h176v-1174q0 -79 -11 -132t-39.5 -95.5t-82.5 -62t-137 -19.5q-33 0 -80 8v146zM143 1245v213h176v-213h-176z" />
<glyph unicode="k" horiz-adv-x="1062" d="M131 0v1458h170v-862l485 461h234l-420 -383l451 -674h-222l-362 553l-166 -154v-399h-170z" />
<glyph unicode="l" horiz-adv-x="454" d="M139 0v1458h176v-1458h-176z" />
<glyph unicode="m" horiz-adv-x="1746" d="M131 0v1057h164v-154q69 93 149.5 136.5t194.5 43.5q217 0 293 -182q70 94 152.5 139t197.5 45q164 0 249 -91t85 -255v-739h-174v666q0 50 -4 85.5t-16.5 71.5t-35 58t-61.5 35.5t-94 13.5q-270 0 -270 -330v-600h-175v678q0 58 -7 98.5t-26.5 77.5t-59.5 55.5 t-101 18.5q-68 0 -119 -19.5t-82.5 -52.5t-51 -81.5t-27 -100t-7.5 -115.5v-559h-174z" />
<glyph unicode="n" d="M131 0v1057h164v-164q67 98 153.5 145t206.5 47q187 0 270 -97t83 -286v-702h-174v623q0 43 -1 70.5t-6 64t-14 59t-25.5 47.5t-40.5 38.5t-59.5 22.5t-81.5 9q-82 0 -142 -29.5t-94 -83t-49.5 -120t-15.5 -148.5v-553h-174z" />
<glyph unicode="o" horiz-adv-x="1175" d="M76 524q0 261 139.5 412t378.5 151q240 0 373 -145t133 -407q0 -269 -133.5 -418.5t-374.5 -149.5q-243 0 -379.5 148t-136.5 409zM256 528q0 -195 89 -304t249 -109q154 0 241 110t87 305q0 189 -89.5 300.5t-242.5 111.5t-243.5 -112.5t-90.5 -301.5z" />
<glyph unicode="p" horiz-adv-x="1214" d="M131 -408v1465h164v-150q60 96 148 139.5t208 43.5q222 0 352 -149.5t130 -405.5q0 -257 -128.5 -409.5t-345.5 -152.5q-118 0 -202.5 41t-151.5 133v-555h-174zM299 532q0 -192 89 -301.5t243 -109.5q149 0 235 110t86 301q0 192 -87 302t-240 110q-152 0 -239 -110 t-87 -302z" />
<glyph unicode="q" horiz-adv-x="1214" d="M84 524q0 261 131.5 413.5t355.5 152.5q121 0 206.5 -43.5t144.5 -139.5v150h161v-1465h-174v558q-53 -85 -144 -131t-210 -46q-115 0 -206.5 45t-148.5 122t-86.5 175t-29.5 209zM264 526q0 -186 87.5 -296.5t236.5 -110.5q152 0 239.5 112t87.5 306q0 190 -87.5 298.5 t-241.5 108.5q-146 0 -234 -114t-88 -304z" />
<glyph unicode="r" horiz-adv-x="681" d="M125 0v1057h166v-228q55 131 151 191.5t240 60.5v-180q-18 2 -45 2q-83 0 -145 -25.5t-98.5 -66t-58 -102.5t-29 -123.5t-7.5 -139.5v-446h-174z" />
<glyph unicode="s" horiz-adv-x="1024" d="M66 334h172q14 -223 286 -223q117 0 187.5 48t70.5 128q0 27 -7.5 48.5t-26.5 38.5t-36 28t-51.5 22.5t-57 18t-67.5 17.5q-13 3 -20 5q-21 5 -69.5 16t-74.5 17.5t-69.5 20.5t-68.5 27t-56 36t-47.5 49t-28.5 63.5t-12 81.5q0 142 109.5 226.5t294.5 84.5 q186 0 303.5 -87.5t117.5 -249.5h-174q-17 192 -258 192q-100 0 -157.5 -38.5t-57.5 -104.5q0 -19 4 -35.5t15.5 -30t21 -24t30.5 -20t33.5 -15t41 -13t42 -11t47 -11t46.5 -10.5q41 -10 61.5 -14.5t61 -16t63 -20.5t57.5 -24.5t55 -31.5t44 -39t36.5 -48t21.5 -58t9 -70 q0 -154 -120 -247t-318 -93q-215 0 -330.5 94t-123.5 273z" />
<glyph unicode="t" horiz-adv-x="645" d="M20 913v144h179v313h174v-313h211v-144h-211v-616v-15q0 -77 13 -102q22 -39 103 -39q39 0 95 6v-149q-73 -8 -133 -8q-54 0 -94 8.5t-67 19t-44.5 37.5t-27 46t-14 64t-5 71.5t-0.5 86.5v29v561h-179z" />
<glyph unicode="u" d="M129 330v727h174v-680q0 -125 48 -189.5t173 -64.5q84 0 145 28.5t96.5 81t52 120t16.5 151.5v553h174v-1057h-162v166q-135 -195 -365 -195q-167 0 -259.5 93t-92.5 266z" />
<glyph unicode="v" horiz-adv-x="1024" d="M29 1057h194l299 -887l291 887h182l-387 -1057h-186z" />
<glyph unicode="w" horiz-adv-x="1552" d="M35 1057h192l242 -871l215 871h190l224 -871l239 871h181l-338 -1057h-185l-217 836l-215 -836h-188z" />
<glyph unicode="x" horiz-adv-x="1060" d="M18 0l398 557l-367 500h221l256 -363l262 363h211l-368 -488l411 -569h-223l-297 434l-293 -434h-211z" />
<glyph unicode="y" horiz-adv-x="1024" d="M16 1057h197l313 -842l297 842h183l-453 -1192q-21 -56 -36 -89t-41.5 -76.5t-55.5 -67.5t-73.5 -41t-98.5 -17q-52 0 -129 18v156q76 -22 112 -22q41 0 74 25t49 63l82 192z" />
<glyph unicode="z" horiz-adv-x="983" d="M45 0v133l631 780h-590v144h825v-115l-643 -795h670v-147h-893z" />
<glyph unicode="{" horiz-adv-x="681" d="M4 504v86q55 6 94.5 17t67 29.5t43.5 40.5t25 57.5t11.5 71.5t2.5 91v98q0 122 19.5 205t68 145t132 94.5t210.5 41.5v-107q-151 -13 -207.5 -79t-56.5 -214v-131q0 -70 -4 -117.5t-18.5 -101t-41.5 -87t-76 -60.5t-118 -37q45 -6 81.5 -18.5t62.5 -31.5t45.5 -39.5 t32 -50t20 -56t11 -65t4.5 -68.5t1 -75v-106q0 -82 11 -136t40 -94.5t81 -61t132 -24.5v-106q-238 15 -334 123.5t-96 341.5v119q0 85 -8.5 135t-34.5 88.5t-73.5 56t-127.5 25.5z" />
<glyph unicode="|" horiz-adv-x="454" d="M160 -438v2048h135v-2048h-135z" />
<glyph unicode="}" horiz-adv-x="681" d="M4 -279q80 4 132 24.5t81 61t40 94.5t11 136v106q0 45 1 75t4.5 68.5t11 65t20 56t32 50t45.5 39.5t62.5 31.5t81.5 18.5q-69 10 -118 37t-76 60.5t-41.5 87t-18.5 101t-4 117.5v131q0 148 -56.5 214t-207.5 79v107q127 -9 210.5 -41.5t132 -94.5t68 -145t19.5 -205v-98 q0 -55 2.5 -91t11.5 -71.5t25 -57.5t43.5 -40.5t67 -29.5t94.5 -17v-86q-80 -8 -127.5 -25.5t-73.5 -56t-34.5 -88.5t-8.5 -135v-119q0 -233 -96 -341.5t-334 -123.5v106z" />
<glyph unicode="~" horiz-adv-x="1228" d="M78 381q10 120 75 202.5t181 82.5q34 0 78.5 -9.5t72.5 -18t85 -28t71 -24.5q10 -3 57.5 -19.5t74 -25t65 -17t65.5 -8.5q66 0 108 46.5t52 113.5h88q-13 -135 -80.5 -208t-177.5 -73q-17 0 -36.5 2.5t-42.5 7.5t-40.5 9.5t-45 13t-41 13t-42 14.5t-35.5 12 q-26 9 -71.5 24t-67.5 22.5t-52 16t-50.5 12t-38.5 3.5q-61 0 -106 -46t-54 -118h-92z" />
<glyph unicode="&#xa3;" d="M96 123q98 66 160.5 157.5t62.5 196.5q0 96 -53 199h-170v88h119q-46 78 -70 145t-24 144q0 187 131 304.5t340 117.5q217 0 348 -126.5t131 -336.5v-21h-178q-8 149 -81.5 238.5t-221.5 89.5q-126 0 -207.5 -74.5t-81.5 -189.5q0 -41 11.5 -83t23 -66.5t38 -73 t36.5 -68.5h325v-88h-280q39 -85 39 -162q0 -56 -13 -102.5t-42.5 -88.5t-51 -65.5t-67 -65.5t-60.5 -57q132 64 229 64q76 0 168 -29q11 -3 40 -12t45 -13.5t40 -9t45 -4.5q112 0 199 74l86 -135q-50 -50 -131.5 -77.5t-157.5 -27.5q-20 0 -41 2.5t-35.5 5t-38 9.5 t-33 10.5t-39 14t-38.5 13.5q-115 39 -195 39q-62 0 -106.5 -19.5t-106.5 -62.5z" />
<glyph unicode="&#xa4;" d="M94 336l131 131q-88 114 -88 262q0 155 88 262l-131 131l82 82l131 -131q113 88 264 88q71 0 131 -20.5t129 -67.5l132 131l81 -82l-131 -131q43 -51 65.5 -121.5t22.5 -140.5q0 -138 -88 -260l131 -133l-81 -82l-134 131q-38 -36 -113 -62t-147 -26q-143 0 -260 88 l-133 -131zM262 729q0 -128 90 -218.5t217 -90.5q128 0 219 91t91 218t-91 217t-219 90q-127 0 -217 -90t-90 -217z" />
<glyph unicode="&#xa6;" horiz-adv-x="454" d="M160 -182v512h135v-512h-135zM160 842v512h135v-512h-135z" />
<glyph unicode="&#xa7;" d="M76 649q0 105 59 189t158 108q-94 97 -94 211q0 143 103.5 232.5t270.5 89.5q177 0 277 -96.5t100 -266.5h-172q-18 217 -211 217q-86 0 -140 -45.5t-54 -118.5q0 -21 3.5 -39t14.5 -36t20.5 -31.5t31.5 -31.5t37.5 -29.5t49 -31.5t55 -32.5t66 -38t72.5 -41.5 q139 -79 190 -119q144 -114 144 -266q0 -105 -57.5 -182.5t-155.5 -122.5q58 -48 86 -100.5t28 -126.5q0 -151 -105 -243.5t-275 -92.5q-183 0 -291 100t-115 277h174q9 -114 69 -173t169 -59q87 0 142.5 48.5t55.5 123.5q0 25 -10.5 50.5t-25.5 46t-42 44.5t-47 40 t-54.5 37.5t-52.5 31.5t-52 28.5t-41 22.5q-17 10 -53 29.5t-55 30.5t-51.5 31t-51 34t-45.5 36t-42 41t-33 45.5t-27.5 52.5t-16 58.5t-6.5 67.5zM240 666q0 -40 16 -74.5t45.5 -61t58 -45.5t66.5 -41q12 -7 18 -10q225 -133 297 -180q69 28 108.5 78t39.5 110q0 40 -16 74 t-50 64t-57.5 46t-68.5 43l-15 9q-62 37 -122.5 72t-83 48t-45.5 28t-44 32q-147 -68 -147 -192z" />
<glyph unicode="&#xa9;" horiz-adv-x="1638" d="M55 731q0 155 60.5 296t163 243t244 162.5t296.5 60.5t296.5 -60.5t244 -162.5t163 -243t60.5 -296t-60.5 -296.5t-163 -244t-244 -163t-296.5 -60.5t-296.5 60.5t-244 163t-163 244t-60.5 296.5zM135 731q0 -186 91.5 -343.5t249 -249t343.5 -91.5q139 0 265.5 54 t218 145.5t146 218t54.5 266.5q0 139 -54 265t-145.5 217.5t-218 145.5t-266.5 54t-266.5 -54t-218 -145.5t-145.5 -217.5t-54 -265zM426 727q0 201 111 328t288 127q145 0 248 -86.5t113 -218.5h-109q-19 97 -85 151.5t-163 54.5q-126 0 -202 -96t-76 -256 q0 -158 78.5 -252t210.5 -94q93 0 158 51.5t85 141.5h107q-17 -129 -116 -209t-240 -80q-186 0 -297 119t-111 319z" />
<glyph unicode="&#xab;" horiz-adv-x="948" d="M102 457v174l318 243v-174l-211 -157l211 -160v-178zM506 453v178l311 243v-178l-205 -155l205 -160v-174z" />
<glyph unicode="&#xac;" horiz-adv-x="1228" d="M100 664v122h1028v-514h-127v392h-901z" />
<glyph unicode="&#xad;" horiz-adv-x="796" d="M100 483v172h596v-172h-596z" />
<glyph unicode="&#xae;" horiz-adv-x="819" d="M37 1116q0 155 109.5 266t263.5 111q155 0 264.5 -110t109.5 -267q0 -155 -109 -265t-263 -110q-155 0 -265 110t-110 265zM94 1116q0 -130 93.5 -223.5t224.5 -93.5q129 0 222 93.5t93 223.5q0 132 -93 225t-224 93q-130 0 -223 -93t-93 -225zM264 928v385h142 q176 0 176 -113q0 -68 -72 -94q35 -15 50 -43.5t15 -79.5q0 -29 13 -55h-74q-10 20 -10 43q0 69 -21.5 87.5t-93.5 18.5h-55v-149h-70zM334 1135h69q56 0 81.5 14.5t25.5 46.5q0 21 -9.5 34t-29 18t-33 6t-37.5 1h-67v-120z" />
<glyph unicode="&#xb0;" horiz-adv-x="819" d="M100 1145q0 128 90.5 218.5t219.5 90.5t219 -90.5t90 -218.5q0 -129 -90 -220t-219 -91t-219.5 91t-90.5 220zM215 1145q0 -81 57.5 -138t137.5 -57t137 57t57 138q0 79 -57 136.5t-137 57.5t-137.5 -57.5t-57.5 -136.5z" />
<glyph unicode="&#xb1;" horiz-adv-x="1228" d="M100 -20v122h1028v-122h-1028zM100 545v123h447v356h135v-356h446v-123h-446v-355h-135v355h-447z" />
<glyph unicode="&#xb5;" d="M129 -408v1465h174v-459q0 -178 18 -257q46 -202 234 -202q54 0 97 16t71.5 41.5t49.5 64.5t32.5 77t18 88.5t8.5 90t2 89.5v451h174v-1057h-162v164q-33 -49 -59 -79.5t-61 -58t-78 -39.5t-99 -12q-91 0 -141.5 34.5t-104.5 119.5v-537h-174z" />
<glyph unicode="&#xb6;" horiz-adv-x="1228" d="M76 981q0 155 70 264.5t187 161t269 51.5h516v-108h-110v-1710h-131v1710h-250v-1710h-131v890q-197 14 -308.5 133.5t-111.5 317.5z" />
<glyph unicode="&#xb7;" horiz-adv-x="569" d="M170 485v228h227v-228h-227z" />
<glyph unicode="&#xbb;" horiz-adv-x="948" d="M129 211v174l205 154l-205 159v176l311 -247v-174zM528 207v174l209 156l-209 161v181l318 -254v-174z" />
<glyph unicode="&#xf7;" horiz-adv-x="1228" d="M100 453v120h1028v-120h-1028zM516 49v230h197v-230h-197zM516 770v231h197v-231h-197z" />
<glyph unicode="&#x401;" horiz-adv-x="1251" d="M162 0v1458h1009v-168h-817v-456h764v-162h-764v-504h828v-168h-1020zM385 1583v207h186v-207h-186zM774 1583v207h184v-207h-184z" />
<glyph unicode="&#x402;" horiz-adv-x="1527" d="M2 1290v168h1167v-168h-548v-553h4q45 82 139 125t205 43q221 0 354 -152t133 -405q0 -124 -40 -237.5t-111 -199t-174.5 -136.5t-223.5 -51h-26v165q185 12 283 139t98 320q0 186 -83.5 290.5t-234.5 104.5q-150 0 -236.5 -104t-86.5 -289v-350h-193v1290h-426z" />
<glyph unicode="&#x403;" horiz-adv-x="1120" d="M162 0v1458h958v-168h-766v-1290h-192zM475 1538l166 291h215l-246 -291h-135z" />
<glyph unicode="&#x404;" horiz-adv-x="1478" d="M84 727q0 158 45.5 296t130.5 242.5t217.5 165t296.5 60.5q108 0 209 -29.5t184.5 -85.5t139.5 -144.5t69 -197.5h-194q-35 137 -144.5 214t-267.5 77q-109 0 -197 -38t-145.5 -104.5t-92.5 -151t-48 -185.5h700v-162h-708q12 -259 141.5 -406t347.5 -147q175 0 283.5 96 t140.5 279h194q-37 -256 -201.5 -398.5t-424.5 -142.5q-312 0 -494 205.5t-182 556.5z" />
<glyph unicode="&#x405;" horiz-adv-x="1327" d="M80 481h186q3 -96 38 -166.5t95.5 -111t135 -59.5t165.5 -19q69 0 129.5 13t115 42t86.5 83t32 128q0 54 -21 94.5t-54.5 67t-90 48.5t-110.5 36t-133 32l-15 3q-15 3 -45 10q-50 11 -75.5 17t-72.5 18.5t-72.5 23t-64 29t-60 37t-47.5 46.5t-39 59t-22.5 71.5t-9.5 87.5 q0 87 30 158t80.5 118t119 79.5t143 46.5t155.5 14q240 0 383 -114.5t152 -342.5h-186q-17 155 -107.5 226t-255.5 71q-157 0 -243.5 -63.5t-86.5 -178.5q0 -47 20 -83t52.5 -59.5t84.5 -42t106 -31.5t126 -28q5 -1 7 -1q48 -10 82 -17.5t82 -21t82.5 -26.5t76 -33t71 -42.5 t59 -52.5t47.5 -64.5t29 -78.5t11 -94q0 -94 -32.5 -170t-86.5 -126t-128 -84t-153.5 -48.5t-166.5 -14.5q-133 0 -242 31.5t-190.5 93t-126.5 161t-45 228.5z" />
<glyph unicode="&#x406;" horiz-adv-x="530" d="M170 0v1458h192v-1458h-192z" />
<glyph unicode="&#x407;" horiz-adv-x="530" d="M-18 1583v207h184v-207h-184zM170 0v1458h192v-1458h-192zM369 1583v207h184v-207h-184z" />
<glyph unicode="&#x408;" horiz-adv-x="1062" d="M51 424q0 28 2 55h187v-51q0 -71 9 -121t34 -94t75.5 -66t126.5 -22q47 0 83 10.5t60 26t41 43.5t26 53t13.5 65t5.5 69t1 75v991h192v-1009q0 -110 -19 -192.5t-64.5 -151t-130 -104.5t-206.5 -36q-230 0 -333 114.5t-103 344.5z" />
<glyph unicode="&#x409;" horiz-adv-x="2048" d="M0 -2v164q35 -21 104 -21q34 0 59 8.5t50 35.5t41 73t27 124t14 187l27 889h831v-590h369q215 0 331.5 -112.5t116.5 -319.5q0 -206 -117.5 -321t-330.5 -115h-561v1290h-455l-29 -821q-8 -230 -93 -365t-245 -135q-72 0 -139 29zM1153 168h303q320 0 320 268 q0 135 -79 199.5t-241 64.5h-303v-532z" />
<glyph unicode="&#x40a;" horiz-adv-x="2048" d="M162 0v1462h192v-594h619v594h192v-594h357q215 0 331.5 -113.5t116.5 -320.5q0 -206 -117.5 -320t-330.5 -114h-549v705h-619v-705h-192zM1165 168h291q320 0 320 266q0 271 -320 271h-291v-537z" />
<glyph unicode="&#x40b;" horiz-adv-x="1527" d="M2 1290v168h1167v-168h-548v-446q8 2 64.5 17t86.5 22t81 14.5t93 7.5q492 0 492 -444v-461h-195v444q0 34 -1 54.5t-7 54.5t-16.5 56t-32.5 48.5t-53 41.5t-78.5 25.5t-108.5 10.5q-44 0 -84.5 -4t-77.5 -11.5t-60 -13.5t-58 -16.5l-45 -13.5v-676h-193v1290h-426z" />
<glyph unicode="&#x40c;" horiz-adv-x="1366" d="M162 0v1458h192v-723l740 723h252l-615 -586l639 -872h-246l-528 741l-242 -229v-512h-192zM557 1538l166 291h215l-246 -291h-135z" />
<glyph unicode="&#x40e;" horiz-adv-x="1251" d="M-2 1458h211l426 -889l418 889h207l-568 -1161q-89 -181 -182 -256.5t-205 -75.5q-96 0 -180 37v164q62 -37 164 -37q70 0 121.5 55t95.5 146l24 51zM328 1841h104q22 -75 75 -117.5t130 -42.5q151 0 205 160h104q-21 -128 -99.5 -205t-207.5 -77q-126 0 -211 78.5 t-100 203.5z" />
<glyph unicode="&#x40f;" horiz-adv-x="1478" d="M162 0v1458h192v-1290h770v1290h193v-1458h-479v-362h-193v362h-483z" />
<glyph unicode="&#x410;" horiz-adv-x="1327" d="M-16 0l573 1458h217l569 -1458h-215l-161 446h-613l-166 -446h-204zM410 600h499l-247 674z" />
<glyph unicode="&#x411;" horiz-adv-x="1402" d="M162 0v1458h999v-168h-807v-422h488q215 0 331.5 -114t116.5 -322q0 -206 -117 -319t-331 -113h-680zM354 168h424q320 0 320 264q0 268 -320 268h-424v-532z" />
<glyph unicode="&#x412;" horiz-adv-x="1402" d="M162 0v1458h622q95 0 175.5 -20t147 -61t104.5 -113.5t38 -169.5q0 -107 -58.5 -193t-156.5 -121q135 -31 208 -127t73 -241q0 -412 -553 -412h-600zM350 162h385q50 0 83.5 1.5t77.5 7t73 16t60 30.5t49.5 48t30 70t11.5 95q0 52 -14 93t-33 67.5t-56 44.5t-65.5 27 t-79.5 14t-80.5 5.5t-84.5 0.5h-5h-352v-520zM350 834h346q50 0 84.5 2t81 9t77.5 22.5t60 40t43.5 64.5t14.5 93q0 46 -10.5 81.5t-26.5 59.5t-44 41t-53.5 26t-65 14t-69 6t-73.5 1h-365v-460z" />
<glyph unicode="&#x413;" horiz-adv-x="1120" d="M162 0v1458h958v-168h-766v-1290h-192z" />
<glyph unicode="&#x414;" horiz-adv-x="1478" d="M18 168h144q84 149 137 429t53 579v282h932v-1290h162v-530h-186v362h-1055v-362h-187v530zM375 168h717v1122h-551v-198q0 -264 -48 -523.5t-118 -400.5z" />
<glyph unicode="&#x415;" horiz-adv-x="1251" d="M162 0v1458h1009v-168h-817v-456h764v-162h-764v-504h828v-168h-1020z" />
<glyph unicode="&#x416;" horiz-adv-x="2048" d="M-16 0l647 860l-582 598h242l639 -678v678h188v-678l639 678h242l-582 -598l647 -860h-241l-533 725l-172 -180v-545h-188v545l-172 180l-533 -725h-241z" />
<glyph unicode="&#x417;" horiz-adv-x="1327" d="M76 481h186q3 -96 38 -166.5t95.5 -111t135 -59.5t165.5 -19q154 0 256.5 84t102.5 221q0 62 -20 108.5t-53 74t-82.5 44.5t-100 23t-113.5 6q-69 0 -131 -4v160q33 -4 131 -4q318 0 318 262q0 65 -25.5 112t-71 72.5t-99 37t-118.5 11.5q-165 0 -255 -71t-107 -226h-187 q9 226 160.5 341.5t394.5 115.5q108 0 197 -23.5t158 -70t107 -123t38 -176.5q0 -111 -72 -200t-170 -118v-6q139 -27 216 -125.5t77 -224.5q0 -57 -19 -117t-63 -122t-107.5 -110.5t-161.5 -79t-216 -30.5q-133 0 -242 31.5t-190.5 93t-126.5 161t-45 228.5z" />
<glyph unicode="&#x418;" horiz-adv-x="1478" d="M162 0v1458h192v-1235h4l715 1235h244v-1458h-193v1239h-4l-717 -1239h-241z" />
<glyph unicode="&#x419;" horiz-adv-x="1478" d="M162 0v1458h192v-1235h4l715 1235h244v-1458h-193v1239h-4l-717 -1239h-241zM428 1841h104q22 -75 75 -117.5t130 -42.5q151 0 205 160h105q-21 -128 -100 -205t-208 -77q-126 0 -211 78.5t-100 203.5z" />
<glyph unicode="&#x41a;" horiz-adv-x="1366" d="M162 0v1458h192v-723l740 723h252l-615 -586l639 -872h-246l-528 741l-242 -229v-512h-192z" />
<glyph unicode="&#x41b;" horiz-adv-x="1402" d="M0 -2v164q35 -21 104 -21q34 0 59 8.5t50 35.5t41 73t27 124t14 187l27 889h915v-1458h-193v1290h-538l-29 -821q-8 -230 -93 -365t-245 -135q-62 0 -139 29z" />
<glyph unicode="&#x41c;" horiz-adv-x="1783" d="M164 0v1458h266l469 -1235l453 1235h268v-1458h-182v1217l-457 -1217h-168l-465 1217v-1217h-184z" />
<glyph unicode="&#x41d;" horiz-adv-x="1478" d="M162 0v1458h192v-608h770v608h193v-1458h-193v682h-770v-682h-192z" />
<glyph unicode="&#x41e;" horiz-adv-x="1556" d="M80 745q0 341 189 544.5t507 203.5q166 0 300 -56.5t221 -157t133.5 -238t46.5 -300.5q0 -162 -45 -302t-130 -246t-220 -167t-304 -61q-170 0 -305 62t-220 169.5t-129 247.5t-44 301zM272 731q0 -274 138 -437t370 -163q229 0 366.5 164t137.5 436q0 270 -138 432 t-370 162q-100 0 -184 -32t-142.5 -87.5t-99 -131t-59.5 -162t-19 -181.5z" />
<glyph unicode="&#x41f;" horiz-adv-x="1478" d="M162 0v1458h1155v-1458h-193v1290h-770v-1290h-192z" />
<glyph unicode="&#x420;" horiz-adv-x="1327" d="M170 0v1458h600q108 0 194 -23.5t152.5 -72.5t102.5 -131t36 -193q0 -440 -497 -440h-396v-598h-192zM362 760h371q59 0 106 7t90 25t71.5 47.5t45.5 76.5t17 110q0 68 -19.5 117t-50.5 77.5t-79.5 45t-96 21.5t-110.5 5h-345v-532z" />
<glyph unicode="&#x421;" horiz-adv-x="1478" d="M90 727q0 158 45.5 296t130.5 242.5t217.5 165t296.5 60.5q87 0 170 -19t158 -58t133.5 -94t96.5 -132t46 -168h-192q-32 143 -142.5 224t-273.5 81q-101 0 -183.5 -32.5t-139 -88.5t-95 -132.5t-56 -162.5t-17.5 -180q0 -278 131 -438t358 -160q186 0 296.5 108 t133.5 312h193q-25 -277 -192.5 -431.5t-438.5 -154.5q-312 0 -494 205.5t-182 556.5z" />
<glyph unicode="&#x422;" horiz-adv-x="1175" d="M2 1290v168h1172v-168h-490v-1290h-192v1290h-490z" />
<glyph unicode="&#x423;" horiz-adv-x="1251" d="M-2 1458h211l426 -889l418 889h207l-568 -1161q-89 -181 -182 -256.5t-205 -75.5q-96 0 -180 37v164q62 -37 164 -37q70 0 121.5 55t95.5 146l24 51z" />
<glyph unicode="&#x424;" horiz-adv-x="1593" d="M61 735q0 134 52.5 244t141.5 180t203 108t240 38v153h193v-153q128 0 242.5 -37.5t202.5 -107.5t140 -180t52 -245q0 -138 -52.5 -247t-142 -176t-202.5 -101.5t-240 -34.5v-176h-193v176q-101 0 -194 22t-173.5 68t-140.5 111.5t-94.5 157.5t-34.5 200zM256 735 q0 -98 33.5 -173.5t94.5 -122t139 -72.5t175 -33v813q-198 -10 -320 -114t-122 -298zM891 334q97 7 175 33t139 72.5t94.5 122t33.5 173.5q0 194 -122 298t-320 114v-813z" />
<glyph unicode="&#x425;" horiz-adv-x="1251" d="M-10 0l514 752l-481 706h231l367 -561l378 561h220l-486 -706l512 -752h-233l-394 600l-407 -600h-221z" />
<glyph unicode="&#x426;" horiz-adv-x="1478" d="M150 0v1458h192v-1290h754v1290h192v-1290h160v-530h-186v362h-1112z" />
<glyph unicode="&#x427;" horiz-adv-x="1366" d="M96 1042v416h193v-399q0 -30 2 -54t10 -55.5t21 -55.5t37.5 -48.5t57 -41t81.5 -26.5t110 -10q179 0 406 49v641h192v-1458h-192v649q-76 -17 -195 -34t-211 -17q-127 0 -223.5 31.5t-150 77.5t-86 109.5t-42.5 116.5t-10 109z" />
<glyph unicode="&#x428;" horiz-adv-x="2197" d="M162 0v1458h192v-1290h647v1290h193v-1290h647v1290h193v-1458h-1872z" />
<glyph unicode="&#x429;" horiz-adv-x="2217" d="M150 0v1458h192v-1290h647v1290h193v-1290h647v1290h192v-1290h166v-530h-188v362h-1849z" />
<glyph unicode="&#x42a;" horiz-adv-x="1644" d="M4 1290v168h668v-590h446q215 0 332 -114.5t117 -321.5q0 -206 -117.5 -319t-331.5 -113h-639v1290h-475zM672 168h381q319 0 319 264q0 268 -319 268h-381v-532z" />
<glyph unicode="&#x42b;" horiz-adv-x="1783" d="M162 0v1458h192v-592h447q215 0 331.5 -113.5t116.5 -320.5q0 -206 -117 -319t-331 -113h-639zM354 168h381q320 0 320 264q0 268 -320 268h-381v-532zM1432 0v1458h192v-1458h-192z" />
<glyph unicode="&#x42c;" horiz-adv-x="1327" d="M162 0v1458h192v-592h447q215 0 331.5 -113.5t116.5 -320.5q0 -206 -117 -319t-331 -113h-639zM354 168h381q320 0 320 264q0 268 -320 268h-381v-532z" />
<glyph unicode="&#x42d;" horiz-adv-x="1478" d="M86 506h195q32 -183 140.5 -279t283.5 -96q209 0 343 149t146 404h-709v162h701q-13 101 -47 185t-90.5 151.5t-143.5 105t-196 37.5q-159 0 -271 -77.5t-147 -213.5h-195q13 109 70 197.5t142 144.5t187 85.5t210 29.5q135 0 247.5 -39.5t192.5 -109t135.5 -166 t82 -209.5t26.5 -240q0 -172 -51.5 -315.5t-141.5 -241t-214.5 -151.5t-268.5 -54q-260 0 -425 142.5t-202 398.5z" />
<glyph unicode="&#x42e;" horiz-adv-x="2048" d="M162 0v1458h192v-608h279q28 297 205.5 470t457.5 173q212 0 365.5 -98t230 -266.5t76.5 -387.5q0 -162 -43 -302t-125 -246.5t-211 -167t-291 -60.5q-125 0 -230.5 36.5t-182.5 102t-133 155.5t-86 196.5t-37 226.5h-275v-682h-192zM821 731q0 -274 130.5 -437 t348.5 -163q215 0 345.5 164.5t130.5 435.5q0 270 -131 432t-349 162q-95 0 -173.5 -32t-134 -87.5t-93.5 -131t-56 -162t-18 -181.5z" />
<glyph unicode="&#x42f;" horiz-adv-x="1366" d="M-8 0l487 629q-174 24 -268 127.5t-94 283.5q0 203 122 310.5t339 107.5h626v-1458h-192v623h-301l-482 -623h-237zM311 1040q0 -132 83.5 -193t248.5 -61h369v508h-369q-332 0 -332 -254z" />
<glyph unicode="&#x430;" horiz-adv-x="1099" d="M74 270q0 284 375 330q190 23 214 28q84 18 107 60q16 29 16 80q0 85 -61 129.5t-178 44.5q-124 0 -187 -50t-75 -165h-170q5 169 121.5 263.5t320.5 94.5q106 0 193 -26.5t139 -75.5q26 -26 42 -57.5t22 -74.5t7 -67t1 -75q0 -79 -4.5 -235.5t-4.5 -235.5 q0 -58 16 -81.5t56 -23.5q16 0 43 6v-135q-53 -20 -119 -20q-73 0 -112 40t-41 115q-78 -88 -169 -128t-214 -40q-157 0 -247.5 80.5t-90.5 218.5zM254 285q0 -82 56.5 -129t154.5 -47q125 0 223 73.5t98 173.5v193q-16 -12 -36.5 -21.5t-34.5 -14.5t-42.5 -10.5t-38 -7 t-43.5 -5.5t-38 -5q-5 -1 -16 -2q-28 -3 -43 -5.5t-42.5 -7t-43.5 -9.5t-40 -13.5t-37.5 -18t-30 -24t-25.5 -31.5t-15 -39.5t-6 -49.5z" />
<glyph unicode="&#x431;" horiz-adv-x="1175" d="M102 598q0 409 127 606q70 108 168.5 160t249.5 63q144 11 182 22q45 14 62 44h174q-7 -42 -24.5 -75t-39 -55t-53.5 -38.5t-62 -25.5t-70.5 -15.5t-72.5 -9t-75 -5.5l-45 -3q-167 -12 -262 -130t-119 -315h6q46 108 144 174t226 66q224 0 353 -142.5t129 -398.5 q0 -264 -130.5 -409.5t-365.5 -145.5q-192 0 -325 114.5t-164 326.5q-13 93 -13 192zM281 514q0 -181 86.5 -291t238.5 -110q147 0 231.5 106t84.5 297q0 186 -86 292.5t-234 106.5t-234.5 -107.5t-86.5 -293.5z" />
<glyph unicode="&#x432;" horiz-adv-x="1099" d="M127 0v1057h489q60 0 109 -6t98 -22.5t82 -44t53.5 -74.5t20.5 -109q0 -156 -156 -228v-2q93 -19 147 -87t54 -173q0 -135 -90.5 -223t-231.5 -88h-575zM297 150h373q81 0 127.5 49.5t46.5 126.5q0 75 -50.5 116t-154.5 41h-342v-333zM297 631h301q109 0 155 35t46 106 q0 69 -45 102t-156 33h-301v-276z" />
<glyph unicode="&#x433;" horiz-adv-x="860" d="M135 0v1057h725v-154h-551v-903h-174z" />
<glyph unicode="&#x434;" horiz-adv-x="1175" d="M16 154h115q50 96 91.5 292.5t41.5 384.5v226h754v-903h137v-490h-166v336h-807v-336h-166v490zM311 154h533v749h-410v-88q0 -187 -38 -378t-85 -283z" />
<glyph unicode="&#x435;" horiz-adv-x="1099" d="M76 514q0 256 135.5 414.5t355.5 158.5q101 0 183 -31.5t136.5 -85t91.5 -128.5t53 -158.5t16 -177.5v-25h-795l-2 -12q0 -169 88 -264.5t242 -95.5q114 0 180.5 52.5t103.5 172.5h170q-40 -183 -156.5 -276t-304.5 -93q-233 0 -365 145.5t-132 403.5zM252 623h614 q-12 151 -92.5 236t-210.5 85q-127 0 -210.5 -86t-100.5 -235z" />
<glyph unicode="&#x436;" horiz-adv-x="1593" d="M0 0l463 623l-404 434h215l431 -486h4v486h174v-486h4l430 486h215l-404 -434l463 -623h-215l-362 512l-131 -133v-379h-174v379l-131 133l-363 -512h-215z" />
<glyph unicode="&#x437;" horiz-adv-x="1024" d="M53 330h176q7 -110 83 -165.5t198 -55.5q120 0 190 57.5t70 142.5q0 172 -225 172h-146v142h117q100 0 161.5 41.5t61.5 130.5q0 62 -60 106.5t-163 44.5q-49 0 -93 -10.5t-82 -32.5t-63 -60.5t-30 -90.5h-176q5 75 32.5 134t69.5 96.5t99.5 61.5t117.5 33.5t127 9.5 q112 0 199.5 -29t142.5 -94.5t55 -160.5q0 -86 -50.5 -147.5t-119.5 -75.5v-5q84 -15 144.5 -81.5t60.5 -180.5q0 -110 -64 -190.5t-161.5 -118t-212.5 -37.5q-207 0 -328.5 95.5t-130.5 267.5z" />
<glyph unicode="&#x438;" d="M131 0v1057h174v-862h4l475 862h224v-1057h-174v862h-5l-475 -862h-223z" />
<glyph unicode="&#x439;" d="M131 0v1057h174v-862h4l475 862h224v-1057h-174v862h-5l-475 -862h-223zM260 1458h105q22 -75 74.5 -117.5t129.5 -42.5q151 0 205 160h105q-21 -128 -100 -205t-208 -77q-126 0 -211 78.5t-100 203.5z" />
<glyph unicode="&#x43a;" horiz-adv-x="1062" d="M131 0v1057h174v-504l483 504h234l-426 -416l481 -641h-221l-385 520l-166 -162v-358h-174z" />
<glyph unicode="&#x43b;" d="M29 0v141q27 -14 92 -14q62 0 105.5 67t47.5 224l19 639h719v-1057h-174v903h-377l-15 -467q-3 -101 -20.5 -180.5t-44.5 -131t-64 -85.5t-77 -48t-86 -14q-72 0 -125 23z" />
<glyph unicode="&#x43c;" horiz-adv-x="1402" d="M129 0v1057h250l321 -856h5l321 856h250v-1057h-174v834h-6l-314 -834h-159l-314 834h-6v-834h-174z" />
<glyph unicode="&#x43d;" d="M131 0v1057h174v-420h529v420h174v-1057h-174v483h-529v-483h-174z" />
<glyph unicode="&#x43e;" horiz-adv-x="1175" d="M76 524q0 261 139.5 412t378.5 151q240 0 373 -145t133 -407q0 -269 -133.5 -418.5t-374.5 -149.5q-243 0 -379.5 148t-136.5 409zM256 528q0 -195 89 -304t249 -109q154 0 241 110t87 305q0 189 -89.5 300.5t-242.5 111.5t-243.5 -112.5t-90.5 -301.5z" />
<glyph unicode="&#x43f;" d="M131 0v1057h877v-1057h-174v903h-529v-903h-174z" />
<glyph unicode="&#x440;" horiz-adv-x="1214" d="M131 -408v1465h164v-150q60 96 148 139.5t208 43.5q222 0 352 -149.5t130 -405.5q0 -257 -128.5 -409.5t-345.5 -152.5q-118 0 -202.5 41t-151.5 133v-555h-174zM299 532q0 -192 89 -301.5t243 -109.5q149 0 235 110t86 301q0 192 -87 302t-240 110q-152 0 -239 -110 t-87 -302z" />
<glyph unicode="&#x441;" horiz-adv-x="1099" d="M78 514q0 264 137.5 418.5t370.5 154.5q194 0 310 -97t138 -277h-180q-23 112 -91 170.5t-175 58.5q-151 0 -239.5 -112t-88.5 -302q0 -194 83.5 -303.5t231.5 -109.5q119 0 194 70t95 200h176q-24 -192 -145 -304t-315 -112q-240 0 -371 148.5t-131 396.5z" />
<glyph unicode="&#x442;" horiz-adv-x="948" d="M8 903v154h932v-154h-379v-903h-174v903h-379z" />
<glyph unicode="&#x443;" horiz-adv-x="1024" d="M16 1057h197l313 -842l297 842h183l-453 -1192q-21 -56 -36 -89t-41.5 -76.5t-55.5 -67.5t-73.5 -41t-98.5 -17q-52 0 -129 18v156q76 -22 112 -22q41 0 74 25t49 63l82 192z" />
<glyph unicode="&#x444;" horiz-adv-x="1638" d="M82 545q0 250 111 394t301 144q65 0 133.5 -35.5t99.5 -78.5h6v489h172v-489h6q31 43 100 78.5t134 35.5q190 0 300.5 -144t110.5 -394q0 -92 -14 -173t-46 -155t-80 -127t-121 -84t-165 -31q-57 0 -123 32.5t-98 72.5h-4v-488h-172v488h-4q-32 -40 -98 -72.5t-123 -32.5 q-92 0 -165 31t-121 84t-80 127t-46 155t-14 173zM262 541q0 -80 12.5 -149t41 -133t83 -101t129.5 -37q78 0 136 39.5t69 97.5v533q-15 53 -53.5 87.5t-79 47t-82.5 12.5q-87 0 -145.5 -52t-84.5 -139t-26 -206zM905 258q11 -58 69 -97.5t136 -39.5q75 0 129.5 37t83 101 t41 133t12.5 149q0 119 -26 206t-84.5 139t-145.5 52q-42 0 -82.5 -12.5t-79 -47t-53.5 -87.5v-533z" />
<glyph unicode="&#x445;" horiz-adv-x="1060" d="M18 0l398 557l-367 500h221l256 -363l262 363h211l-368 -488l411 -569h-223l-297 434l-293 -434h-211z" />
<glyph unicode="&#x446;" horiz-adv-x="1167" d="M131 0v1057h174v-903h520v903h174v-903h138v-490h-166v336h-840z" />
<glyph unicode="&#x447;" horiz-adv-x="1079" d="M102 723v334h174v-305q0 -98 51 -141.5t152 -43.5q67 0 159.5 17t135.5 30v443h174v-1057h-174v467q-43 -12 -151 -29.5t-177 -17.5q-162 0 -253 76.5t-91 226.5z" />
<glyph unicode="&#x448;" horiz-adv-x="1656" d="M131 0v1057h174v-903h436v903h174v-903h437v903h174v-1057h-1395z" />
<glyph unicode="&#x449;" horiz-adv-x="1687" d="M131 0v1057h174v-903h436v903h174v-903h437v903h174v-903h137v-490h-166v336h-1366z" />
<glyph unicode="&#x44a;" horiz-adv-x="1251" d="M6 903v154h479v-404h377q157 0 250.5 -86.5t93.5 -236.5t-91 -240t-245 -90h-559v903h-305zM485 154h322q107 0 163 45.5t56 130.5t-55.5 129.5t-163.5 44.5h-322v-350z" />
<glyph unicode="&#x44b;" horiz-adv-x="1441" d="M125 0v1057h174v-404h328q157 0 250.5 -86.5t93.5 -236.5t-91 -240t-245 -90h-510zM299 154h272q107 0 163.5 45.5t56.5 130.5t-56 129.5t-164 44.5h-272v-350zM1139 0v1057h174v-1057h-174z" />
<glyph unicode="&#x44c;" horiz-adv-x="1062" d="M125 0v1057h174v-404h377q157 0 250.5 -86.5t93.5 -236.5t-91 -240t-245 -90h-559zM299 154h322q107 0 163 45.5t56 130.5t-55.5 129.5t-163.5 44.5h-322v-350z" />
<glyph unicode="&#x44d;" horiz-adv-x="1099" d="M63 360h177q25 -118 98 -181.5t186 -63.5q138 0 221.5 97t92.5 269h-443v142h439q-22 150 -107 234.5t-215 84.5q-199 0 -256 -192h-184q29 162 144 249.5t298 87.5q233 0 370.5 -154.5t137.5 -418.5q0 -248 -131 -396.5t-371 -148.5q-188 0 -308.5 105t-148.5 286z" />
<glyph unicode="&#x44e;" horiz-adv-x="1568" d="M131 0v1057h174v-420h213q28 211 157.5 330.5t332.5 119.5q230 0 357.5 -145t127.5 -407q0 -269 -128 -418.5t-359 -149.5q-224 0 -354.5 136.5t-141.5 379.5h-205v-483h-174zM690 528q0 -195 83.5 -304t234.5 -109q145 0 226 110t81 305q0 190 -83.5 301t-227.5 111 t-229 -112.5t-85 -301.5z" />
<glyph unicode="&#x44f;" horiz-adv-x="1099" d="M-4 0l364 438q-116 18 -189 99t-73 208q0 148 88.5 230t243.5 82h537v-1057h-174v432h-232l-334 -432h-231zM276 745q0 -82 50.5 -120.5t158.5 -38.5h308v317h-308q-107 0 -158 -39t-51 -119z" />
<glyph unicode="&#x451;" horiz-adv-x="1099" d="M76 514q0 256 135.5 414.5t355.5 158.5q101 0 183 -31.5t136.5 -85t91.5 -128.5t53 -158.5t16 -177.5v-25h-795l-2 -12q0 -169 88 -264.5t242 -95.5q114 0 180.5 52.5t103.5 172.5h170q-40 -183 -156.5 -276t-304.5 -93q-233 0 -365 145.5t-132 403.5zM252 623h614 q-12 151 -92.5 236t-210.5 85q-127 0 -210.5 -86t-100.5 -235zM287 1249v207h186v-207h-186zM676 1249v207h184v-207h-184z" />
<glyph unicode="&#x452;" d="M18 903v154h154v401h174v-401h483v-154h-483v-334h4q97 187 342 187q357 0 357 -387v-193q0 -252 -155 -412.5t-402 -169.5v162q175 21 278.5 136t103.5 303v178q0 111 -59 171t-164 60q-142 0 -223.5 -81.5t-81.5 -231.5v-291h-174v903h-154z" />
<glyph unicode="&#x453;" horiz-adv-x="860" d="M135 0v1057h725v-154h-551v-903h-174zM272 1208l166 291h215l-245 -291h-136z" />
<glyph unicode="&#x454;" horiz-adv-x="1099" d="M82 514q0 264 137.5 418.5t370.5 154.5q183 0 297 -87t145 -250h-184q-57 192 -256 192q-132 0 -217 -84.5t-105 -234.5h447v-142h-453q11 -172 94.5 -269t221.5 -97q113 0 186 63.5t98 181.5h176q-30 -181 -149.5 -286t-306.5 -105q-240 0 -371 148.5t-131 396.5z" />
<glyph unicode="&#x455;" horiz-adv-x="1024" d="M66 334h172q14 -223 286 -223q117 0 187.5 48t70.5 128q0 27 -7.5 48.5t-26.5 38.5t-36 28t-51.5 22.5t-57 18t-67.5 17.5q-13 3 -20 5q-21 5 -69.5 16t-74.5 17.5t-69.5 20.5t-68.5 27t-56 36t-47.5 49t-28.5 63.5t-12 81.5q0 142 109.5 226.5t294.5 84.5 q186 0 303.5 -87.5t117.5 -249.5h-174q-17 192 -258 192q-100 0 -157.5 -38.5t-57.5 -104.5q0 -19 4 -35.5t15.5 -30t21 -24t30.5 -20t33.5 -15t41 -13t42 -11t47 -11t46.5 -10.5q41 -10 61.5 -14.5t61 -16t63 -20.5t57.5 -24.5t55 -31.5t44 -39t36.5 -48t21.5 -58t9 -70 q0 -154 -120 -247t-318 -93q-215 0 -330.5 94t-123.5 273z" />
<glyph unicode="&#x456;" horiz-adv-x="454" d="M139 0v1057h176v-1057h-176zM139 1245v213h176v-213h-176z" />
<glyph unicode="&#x457;" horiz-adv-x="454" d="M-59 1249v209h184v-209h-184zM139 0v1057h176v-1057h-176zM330 1249v209h182v-209h-182z" />
<glyph unicode="&#x458;" horiz-adv-x="454" d="M-31 -272q54 -4 60 -4q34 0 56 7t33.5 15.5t17 31.5t6.5 40t1 56v13v1170h176v-1174q0 -79 -11 -132t-39.5 -95.5t-82.5 -62t-137 -19.5q-33 0 -80 8v146zM143 1245v213h176v-213h-176z" />
<glyph unicode="&#x459;" horiz-adv-x="1593" d="M18 0v141q27 -14 93 -14q62 0 105.5 67t47.5 224l19 639h653v-400h289q154 0 238.5 -87.5t84.5 -239.5t-85 -241t-238 -89h-463v903h-311l-15 -467q-4 -125 -29 -217t-66.5 -143t-90.5 -75t-107 -24q-72 0 -125 23zM936 154h225q207 0 207 176q0 174 -207 174h-225v-350z " />
<glyph unicode="&#x45a;" horiz-adv-x="1593" d="M131 0v1057h174v-400h447v400h174v-400h299q154 0 238.5 -87.5t84.5 -239.5t-85 -241t-238 -89h-473v504h-447v-504h-174zM926 154h235q207 0 207 176q0 174 -207 174h-235v-350z" />
<glyph unicode="&#x45b;" d="M18 903v154h154v401h174v-401h463v-154h-463v-328h4q94 181 342 181q357 0 357 -387v-369h-175v389q0 100 -59.5 156.5t-163.5 56.5q-142 0 -223.5 -80.5t-81.5 -230.5v-291h-174v903h-154z" />
<glyph unicode="&#x45c;" horiz-adv-x="1062" d="M131 0v1057h174v-504l483 504h234l-426 -416l481 -641h-221l-385 520l-166 -162v-358h-174zM395 1208l166 291h215l-246 -291h-135z" />
<glyph unicode="&#x45e;" horiz-adv-x="1024" d="M16 1057h197l313 -842l297 842h183l-453 -1192q-21 -56 -36 -89t-41.5 -76.5t-55.5 -67.5t-73.5 -41t-98.5 -17q-52 0 -129 18v156q76 -22 112 -22q41 0 74 25t49 63l82 192zM213 1458h104q22 -75 75 -117.5t130 -42.5q151 0 205 160h104q-21 -128 -99.5 -205t-207.5 -77 q-126 0 -211 78.5t-100 203.5z" />
<glyph unicode="&#x45f;" d="M131 0v1057h174v-903h529v903h174v-1057h-353v-336h-174v336h-350z" />
<glyph unicode="&#x490;" horiz-adv-x="1120" d="M162 0v1458h764v330h194v-498h-766v-1290h-192z" />
<glyph unicode="&#x491;" horiz-adv-x="860" d="M131 0v1057h543v319h174v-473h-543v-903h-174z" />
<glyph unicode="&#x2000;" horiz-adv-x="920" />
<glyph unicode="&#x2001;" horiz-adv-x="1841" />
<glyph unicode="&#x2002;" horiz-adv-x="920" />
<glyph unicode="&#x2003;" horiz-adv-x="1841" />
<glyph unicode="&#x2004;" horiz-adv-x="613" />
<glyph unicode="&#x2005;" horiz-adv-x="460" />
<glyph unicode="&#x2006;" horiz-adv-x="306" />
<glyph unicode="&#x2007;" horiz-adv-x="306" />
<glyph unicode="&#x2008;" horiz-adv-x="230" />
<glyph unicode="&#x2009;" horiz-adv-x="368" />
<glyph unicode="&#x200a;" horiz-adv-x="102" />
<glyph unicode="&#x2010;" horiz-adv-x="796" d="M100 483v172h596v-172h-596z" />
<glyph unicode="&#x2011;" horiz-adv-x="796" d="M100 483v172h596v-172h-596z" />
<glyph unicode="&#x2012;" horiz-adv-x="796" d="M100 483v172h596v-172h-596z" />
<glyph unicode="&#x2013;" horiz-adv-x="1024" d="M0 485v168h1024v-168h-1024z" />
<glyph unicode="&#x2014;" horiz-adv-x="2048" d="M0 485v168h2048v-168h-2048z" />
<glyph unicode="&#x2018;" horiz-adv-x="569" d="M160 969v223q0 107 63.5 191t167.5 108v-102q-114 -37 -117 -201h117v-219h-231z" />
<glyph unicode="&#x2019;" horiz-adv-x="569" d="M176 936v102q114 38 117 201h-117v219h232v-223q0 -107 -64 -191t-168 -108z" />
<glyph unicode="&#x201a;" horiz-adv-x="569" d="M170 0v211h221v-166q0 -128 -52.5 -219.5t-168.5 -124.5v98q62 27 86 75.5t27 125.5h-113z" />
<glyph unicode="&#x201c;" horiz-adv-x="872" d="M137 979v166q0 128 52.5 219.5t168.5 124.5v-98q-62 -27 -85.5 -75.5t-26.5 -125.5h112v-211h-221zM510 979v166q0 128 52.5 219.5t168.5 124.5v-98q-62 -27 -86 -75.5t-27 -125.5h113v-211h-221z" />
<glyph unicode="&#x201d;" horiz-adv-x="872" d="M139 948v99q63 27 86.5 75.5t26.5 124.5h-113v211h221v-166q0 -128 -52.5 -219.5t-168.5 -124.5zM512 948v99q63 27 86.5 75.5t26.5 124.5h-113v211h221v-166q0 -128 -52.5 -219.5t-168.5 -124.5z" />
<glyph unicode="&#x201e;" horiz-adv-x="872" d="M141 0v211h221v-166q0 -128 -52.5 -219.5t-168.5 -124.5v98q62 27 86 75.5t27 125.5h-113zM514 0v211h221v-166q0 -128 -52.5 -219.5t-168.5 -124.5v98q62 27 86 75.5t27 125.5h-113z" />
<glyph unicode="&#x2022;" horiz-adv-x="1024" d="M147 729q0 151 107 258t258 107t258 -107t107 -258t-107 -257.5t-258 -106.5t-258 106.5t-107 257.5z" />
<glyph unicode="&#x2026;" horiz-adv-x="2048" d="M258 0v219h168v-219h-168zM940 0v219h168v-219h-168zM1622 0v219h168v-219h-168z" />
<glyph unicode="&#x202f;" horiz-adv-x="368" />
<glyph unicode="&#x2039;" horiz-adv-x="530" d="M86 453v178l311 241v-176l-207 -153l207 -162v-176z" />
<glyph unicode="&#x203a;" horiz-adv-x="530" d="M133 209v176l207 154l-207 159v176l311 -245v-180z" />
<glyph unicode="&#x205f;" horiz-adv-x="460" />
<glyph unicode="&#x2122;" horiz-adv-x="2027" d="M229 1372v86h600v-86h-249v-643h-101v643h-250zM961 729v729h149l219 -581l219 581h146v-729h-90v633l-236 -633h-82l-235 633v-633h-90z" />
<glyph unicode="&#xe000;" horiz-adv-x="1054" d="M0 0v1055h1055v-1055h-1055z" />
</font>
</defs>
</svg>
